<?xml version="1.0" encoding="UTF-8" standalone="no"?>
<svg
   xmlns:dc="http://purl.org/dc/elements/1.1/"
   xmlns:cc="http://creativecommons.org/ns#"
   xmlns:rdf="http://www.w3.org/1999/02/22-rdf-syntax-ns#"
   xmlns:svg="http://www.w3.org/2000/svg"
   xmlns="http://www.w3.org/2000/svg"
   xmlns:sodipodi="http://sodipodi.sourceforge.net/DTD/sodipodi-0.dtd"
   xmlns:inkscape="http://www.inkscape.org/namespaces/inkscape"
   version="1.0"
   width="267.27866"
   height="236.79581"
   viewBox="0 0 213.82292 189.43665"
   preserveAspectRatio="xMidYMid meet"
   id="svg2"
   inkscape:version="0.48.4 r9939"
   sodipodi:docname="Quantizer1.svg">
  <defs
     id="defs14" />
  <sodipodi:namedview
     pagecolor="#ffffff"
     bordercolor="#666666"
     borderopacity="1"
     objecttolerance="10"
     gridtolerance="10"
     guidetolerance="10"
     inkscape:pageopacity="0"
     inkscape:pageshadow="2"
     inkscape:window-width="1315"
     inkscape:window-height="744"
     id="namedview12"
     showgrid="false"
     inkscape:zoom="0.57254902"
     inkscape:cx="340.52832"
     inkscape:cy="347.70761"
     inkscape:window-x="51"
     inkscape:window-y="24"
     inkscape:window-maximized="1"
     inkscape:current-layer="svg2"
     fit-margin-top="0"
     fit-margin-left="0"
     fit-margin-right="0"
     fit-margin-bottom="0" />
  <metadata
     id="metadata4">
Created by potrace 1.11, written by Peter Selinger 2001-2013
<rdf:RDF>
  <cc:Work
     rdf:about="">
    <dc:format>image/svg+xml</dc:format>
    <dc:type
       rdf:resource="http://purl.org/dc/dcmitype/StillImage" />
    <dc:title />
  </cc:Work>
</rdf:RDF>
</metadata>
  <g
     transform="matrix(0.06071898,0,0,-0.06229732,-28.023441,176.7004)"
     id="g6"
     style="fill:#000000;stroke:none">
    <path
       d="m 1625,2706 c -37,-16 -70,-52 -84,-89 -6,-16 -11,-84 -11,-153 0,-68 -3,-124 -7,-124 -5,0 -26,12 -48,25 -22,14 -43,25 -47,25 -15,0 -8,-29 10,-39 11,-7 -137,-10 -471,-10 -269,-1 -493,-3 -498,-7 -30,-18 26,-24 247,-24 l 244,0 2,-647 3,-648 435,-5 c 252,-3 428,-9 418,-14 -18,-8 -25,-36 -9,-36 5,0 29,12 54,26 l 46,25 12,-43 c 31,-116 114,-197 222,-214 l 37,-7 0,-141 c 0,-132 -1,-139 -16,-117 -11,15 -20,19 -26,13 -7,-7 0,-29 22,-66 17,-31 33,-56 35,-56 8,0 65,101 65,115 0,22 -15,18 -33,-7 -15,-21 -16,-13 -16,118 l -1,141 60,17 c 101,27 176,111 195,218 l 7,36 58,-31 c 60,-33 94,-30 50,3 -25,19 -21,19 315,22 l 340,3 3,648 2,647 163,-1 c 150,0 160,-1 140,-16 -27,-18 -30,-33 -7,-33 16,0 100,46 109,60 8,13 -106,73 -117,62 -6,-6 -1,-15 13,-26 22,-15 -6,-16 -384,-16 l -407,0 0,133 c 0,156 -11,188 -80,224 l -43,23 -486,0 c -383,-1 -492,-4 -516,-14 z m 1036,-39 c 58,-39 59,-44 59,-370 0,-247 -3,-303 -15,-327 -31,-61 -26,-60 -570,-60 l -495,0 -38,34 -37,34 -3,306 c -3,339 -2,348 61,386 31,19 54,20 518,20 l 486,0 34,-23 z M 1435,2290 c -30,-33 -7,-37 46,-7 l 49,27 0,-158 c 0,-144 2,-160 23,-196 44,-78 29,-76 587,-76 546,0 537,-1 584,63 19,26 21,45 24,198 l 3,169 230,0 229,0 0,-635 0,-635 -326,0 c -323,0 -326,0 -303,19 42,34 10,36 -50,3 l -59,-32 -6,42 c -9,57 -57,140 -102,174 -53,41 -128,63 -193,58 -133,-11 -225,-97 -256,-237 l -6,-28 -44,25 c -24,14 -48,26 -54,26 -20,0 -11,-27 12,-38 16,-8 -91,-11 -405,-11 l -428,-1 0,635 0,635 232,0 c 231,0 231,0 213,-20 z m 872,-1031 c 120,-58 175,-214 119,-334 -79,-169 -285,-207 -419,-77 -40,39 -77,123 -77,175 0,113 83,223 191,256 47,14 135,5 186,-20 z"
       id="path8"
       inkscape:connector-curvature="0" />
    <path
       d="m 2057,2442 c -58,-36 -85,-153 -54,-242 17,-49 67,-80 129,-80 27,0 58,4 68,10 13,7 21,5 31,-6 12,-14 81,-54 94,-54 3,0 5,8 5,18 0,9 -16,26 -38,37 -40,22 -41,28 -17,95 31,84 4,194 -55,225 -39,20 -128,19 -163,-3 z m 152,-40 c 59,-59 47,-203 -20,-237 -60,-32 -119,-10 -145,51 -28,68 -10,164 37,198 38,26 96,21 128,-12 z"
       id="path10"
       inkscape:connector-curvature="0" />
  </g>
  <text
     xml:space="preserve"
     style="font-size:32px;font-style:normal;font-weight:normal;line-height:125%;letter-spacing:0px;word-spacing:0px;fill:#000000;fill-opacity:1;stroke:none;font-family:Sans"
     x="127.10759"
     y="50.297962"
     id="text2991"
     sodipodi:linespacing="125%"><tspan
       sodipodi:role="line"
       id="tspan2993"
       x="127.10759"
       y="50.297962" /></text>
  <text
     xml:space="preserve"
     style="font-size:32px;font-style:normal;font-weight:normal;line-height:125%;letter-spacing:0px;word-spacing:0px;fill:#000000;fill-opacity:1;stroke:none;font-family:Sans"
     x="188.58705"
     y="79.640419"
     id="text3011"
     sodipodi:linespacing="125%"><tspan
       sodipodi:role="line"
       id="tspan3013"
       x="188.58705"
       y="79.640419" /></text>
  <text
     xml:space="preserve"
     style="font-size:32px;font-style:normal;font-weight:normal;line-height:125%;letter-spacing:0px;word-spacing:0px;fill:#000000;fill-opacity:1;stroke:none;font-family:Sans"
     x="110.34048"
     y="155.09247"
     id="text3015"
     sodipodi:linespacing="125%"><tspan
       sodipodi:role="line"
       id="tspan3017"
       x="110.34048"
       y="155.09247" /></text>
  <text
     xml:space="preserve"
     style="font-size:32px;font-style:normal;font-weight:normal;line-height:125%;letter-spacing:0px;word-spacing:0px;fill:#000000;fill-opacity:1;stroke:none;font-family:Sans"
     x="-2.8376162"
     y="142.51712"
     id="text3019"
     sodipodi:linespacing="125%"><tspan
       sodipodi:role="line"
       id="tspan3021"
       x="-2.8376162"
       y="142.51712" /></text>
  <text
     xml:space="preserve"
     style="font-size:32px;font-style:normal;font-weight:normal;line-height:125%;letter-spacing:0px;word-spacing:0px;fill:#000000;fill-opacity:1;stroke:none;font-family:Sans"
     x="60.039101"
     y="145.31166"
     id="text3023"
     sodipodi:linespacing="125%"><tspan
       sodipodi:role="line"
       id="tspan3025"
       x="60.039101"
       y="145.31166" /></text>
  <text
     xml:space="preserve"
     style="font-size:19.68098831px;font-style:normal;font-weight:normal;line-height:125%;letter-spacing:0px;word-spacing:0px;fill:#000000;fill-opacity:1;stroke:none;font-family:Sans"
     x="18.020016"
     y="159.88327"
     id="text3027"
     sodipodi:linespacing="125%"
     transform="scale(0.98725093,1.0129137)"><tspan
       sodipodi:role="line"
       id="tspan3029"
       x="18.020016"
       y="159.88327" /><tspan
       sodipodi:role="line"
       x="18.020016"
       y="184.48451"
       id="tspan3031">Quantization Error</tspan></text>
  <text
     xml:space="preserve"
     style="font-size:19.68098831px;font-style:normal;font-weight:normal;line-height:125%;letter-spacing:0px;word-spacing:0px;fill:#000000;fill-opacity:1;stroke:none;font-family:Sans"
     x="5.9890022"
     y="16.325703"
     id="text3033"
     sodipodi:linespacing="125%"
     transform="scale(0.98725093,1.0129137)"><tspan
       sodipodi:role="line"
       id="tspan3035"
       x="5.9890022"
       y="16.325703">Input</tspan></text>
  <text
     xml:space="preserve"
     style="font-size:32px;font-style:normal;font-weight:normal;line-height:125%;letter-spacing:0px;word-spacing:0px;fill:#000000;fill-opacity:1;stroke:none;font-family:Sans"
     x="272.42267"
     y="-99.208893"
     id="text3037"
     sodipodi:linespacing="125%"><tspan
       sodipodi:role="line"
       id="tspan3041"
       x="272.42267"
       y="-99.208893" /></text>
  <text
     xml:space="preserve"
     style="font-size:19.68098831px;font-style:normal;font-weight:normal;line-height:125%;letter-spacing:0px;word-spacing:0px;fill:#000000;fill-opacity:1;stroke:none;font-family:Sans"
     x="148.64247"
     y="14.606983"
     id="text3045"
     sodipodi:linespacing="125%"
     transform="scale(0.98725093,1.0129137)"><tspan
       sodipodi:role="line"
       id="tspan3047"
       x="148.64247"
       y="14.606983">Output</tspan></text>
  <text
     xml:space="preserve"
     style="font-size:32px;font-style:normal;font-weight:normal;line-height:125%;letter-spacing:0px;word-spacing:0px;fill:#000000;fill-opacity:1;stroke:none;font-family:Sans"
     x="157.84732"
     y="68.462341"
     id="text3013"
     sodipodi:linespacing="125%"><tspan
       sodipodi:role="line"
       id="tspan3015"
       x="157.84732"
       y="68.462341"
       style="font-size:14.39999962px" /></text>
  <text
     xml:space="preserve"
     style="font-size:14.39999962px;font-style:normal;font-weight:normal;line-height:125%;letter-spacing:0px;word-spacing:0px;fill:#000000;fill-opacity:1;stroke:none;font-family:Sans;-inkscape-font-specification:Sans"
     x="146.66925"
     y="93.613029"
     id="text3017"
     sodipodi:linespacing="125%"><tspan
       sodipodi:role="line"
       id="tspan3019"
       x="146.66925"
       y="93.613029"
       style="font-size:14.39999962px;font-weight:normal;-inkscape-font-specification:Sans" /></text>
  <text
     xml:space="preserve"
     style="font-size:10.07968616px;font-style:normal;font-weight:normal;line-height:125%;letter-spacing:0px;word-spacing:0px;fill:#000000;fill-opacity:1;stroke:none;font-family:Sans"
     x="113.87702"
     y="71.37944"
     id="text3021"
     sodipodi:linespacing="125%"
     transform="scale(0.74233187,1.3471064)"><tspan
       sodipodi:role="line"
       id="tspan3023"
       x="113.87702"
       y="71.37944">Difference</tspan></text>
</svg>
