<?xml version="1.0" encoding="UTF-8" standalone="no"?>
<svg
   xmlns:dc="http://purl.org/dc/elements/1.1/"
   xmlns:cc="http://creativecommons.org/ns#"
   xmlns:rdf="http://www.w3.org/1999/02/22-rdf-syntax-ns#"
   xmlns:svg="http://www.w3.org/2000/svg"
   xmlns="http://www.w3.org/2000/svg"
   xmlns:sodipodi="http://sodipodi.sourceforge.net/DTD/sodipodi-0.dtd"
   xmlns:inkscape="http://www.inkscape.org/namespaces/inkscape"
   version="1.0"
   width="464.94171"
   height="165.29018"
   viewBox="0 0 371.95337 132.23215"
   preserveAspectRatio="xMidYMid meet"
   id="svg3037"
   inkscape:version="0.48.4 r9939"
   sodipodi:docname="Delta_Sigma_ADC_Simplified_Block.svg">
  <defs
     id="defs3049" />
  <sodipodi:namedview
     pagecolor="#ffffff"
     bordercolor="#666666"
     borderopacity="1"
     objecttolerance="10"
     gridtolerance="10"
     guidetolerance="10"
     inkscape:pageopacity="0"
     inkscape:pageshadow="2"
     inkscape:window-width="1315"
     inkscape:window-height="744"
     id="namedview3047"
     showgrid="false"
     inkscape:zoom="1"
     inkscape:cx="278.58039"
     inkscape:cy="164.15217"
     inkscape:window-x="51"
     inkscape:window-y="24"
     inkscape:window-maximized="1"
     inkscape:current-layer="svg3037"
     fit-margin-top="0"
     fit-margin-left="0"
     fit-margin-right="0"
     fit-margin-bottom="0" />
  <metadata
     id="metadata3039">
Created by potrace 1.12, written by Peter Selinger 2001-2015
<rdf:RDF>
  <cc:Work
     rdf:about="">
    <dc:format>image/svg+xml</dc:format>
    <dc:type
       rdf:resource="http://purl.org/dc/dcmitype/StillImage" />
  </cc:Work>
</rdf:RDF>
</metadata>
  <g
     transform="matrix(0.04386728,0,0,-0.07470743,-23.249666,159.12683)"
     id="g3041"
     style="fill:#000000;stroke:none">
    <path
       d="m 8480,2010 c 0,-66 -2,-120 -5,-120 -3,0 -28,11 -55,25 -27,14 -52,25 -55,25 -3,0 -5,-13 -5,-30 l 0,-30 -419,0 c -363,0 -420,2 -425,15 -3,8 -14,15 -25,15 -10,0 -21,-7 -25,-15 -5,-13 -120,-15 -950,-15 l -944,0 -7,28 c -15,72 -86,132 -155,132 -68,0 -139,-55 -155,-122 l -7,-27 -49,24 c -26,14 -51,25 -54,25 -3,0 -5,-13 -5,-30 l 0,-30 -460,0 -459,0 -3,118 -3,117 -230,0 -230,0 -3,-113 -3,-112 -49,25 c -27,14 -52,25 -55,25 -3,0 -5,-13 -5,-30 l 0,-30 -609,0 -609,0 -7,28 c -15,72 -86,132 -155,132 -69,0 -141,-56 -155,-120 l -6,-30 -49,25 c -27,14 -52,25 -55,25 -3,0 -5,-13 -5,-30 l 0,-30 -500,0 -500,0 0,120 0,120 -230,0 -230,0 0,-235 0,-235 230,0 230,0 0,110 0,110 500,0 c 493,0 500,0 500,-20 0,-25 1,-25 59,4 l 48,25 12,-39 c 13,-44 69,-98 112,-107 16,-3 29,-7 29,-10 0,-2 -11,-26 -25,-53 -14,-27 -25,-52 -25,-55 0,-3 14,-5 30,-5 l 30,0 0,-625 0,-625 2620,0 2620,0 0,749 c 0,674 2,749 16,755 9,3 202,6 430,6 412,0 414,0 414,-21 0,-23 18,-20 80,12 l 35,19 3,-119 3,-118 37,-7 c 48,-8 386,-8 406,0 14,5 16,37 16,250 l 0,244 -230,0 -230,0 0,-120 z m 448,-127 2,-233 -220,0 -220,0 0,235 0,235 218,-2 217,-3 3,-232 z m -7948,2 0,-215 -220,0 -220,0 0,215 0,215 220,0 220,0 0,-215 z m 3220,0 0,-215 -220,0 -220,0 0,215 0,215 220,0 220,0 0,-215 z m -1862,119 c 35,-23 62,-75 62,-119 0,-108 -115,-177 -207,-125 -106,59 -99,206 12,256 35,16 99,10 133,-12 z m 3150,0 c 81,-53 80,-185 -1,-239 -83,-54 -209,1 -217,95 -6,76 22,128 85,156 35,16 99,10 133,-12 z m -1503,-354 235,0 0,110 0,110 460,0 c 453,0 460,0 460,-20 0,-25 1,-25 59,4 l 48,25 12,-39 c 13,-44 69,-98 112,-107 16,-3 29,-7 29,-10 0,-2 -11,-26 -25,-53 -14,-27 -25,-52 -25,-55 0,-3 14,-5 30,-5 29,0 30,-2 30,-45 l 0,-45 -115,0 -115,0 0,-235 0,-235 230,0 230,0 0,235 0,235 -110,0 -110,0 0,45 c 0,38 3,45 20,45 11,0 20,5 20,10 0,6 -9,28 -20,50 -27,52 -26,57 13,64 41,8 92,56 107,102 l 12,34 943,0 c 519,0 950,-3 959,-6 14,-6 16,-81 16,-750 l 0,-744 -2610,0 -2610,0 0,620 c 0,613 0,620 20,620 25,0 25,11 0,60 -27,52 -26,57 13,64 41,8 94,58 105,100 l 8,31 612,3 c 607,2 612,2 612,-18 0,-25 4,-25 60,4 l 45,24 3,-114 3,-114 234,0 z m 1645,-365 0,-215 -220,0 -220,0 0,215 0,215 220,0 220,0 0,-215 z"
       id="path3043"
       inkscape:connector-curvature="0" />
    <path
       d="m 8675,2060 -130,-5 0,-90 0,-90 173,-3 173,-2 -3,97 -3,98 -40,0 c -22,0 -98,-2 -170,-5 z m 200,-90 0,-80 -157,0 -158,0 0,80 0,80 158,0 157,0 0,-80 z"
       id="path3045"
       inkscape:connector-curvature="0" />
  </g>
  <text
     xml:space="preserve"
     style="font-size:9.15950871px;font-style:normal;font-weight:normal;line-height:125%;letter-spacing:0px;word-spacing:0px;fill:#000000;fill-opacity:1;stroke:none;font-family:Sans"
     x="2.5646427"
     y="14.635306"
     id="text3051"
     sodipodi:linespacing="125%"
     transform="scale(0.76628164,1.3050032)"><tspan
       sodipodi:role="line"
       id="tspan3053"
       x="2.5646427"
       y="14.635306"
       style="font-size:7.32760715px">Input</tspan></text>
  <text
     xml:space="preserve"
     style="font-size:9.15950871px;font-style:normal;font-weight:normal;line-height:125%;letter-spacing:0px;word-spacing:0px;fill:#000000;fill-opacity:1;stroke:none;font-family:Sans"
     x="94.127876"
     y="16.542879"
     id="text3055"
     sodipodi:linespacing="125%"
     transform="scale(0.76628164,1.3050032)"><tspan
       sodipodi:role="line"
       id="tspan3057"
       x="94.127876"
       y="16.542879"
       style="font-size:5.4957056px">+</tspan></text>
  <text
     xml:space="preserve"
     style="font-size:9.15950871px;font-style:normal;font-weight:normal;line-height:125%;letter-spacing:0px;word-spacing:0px;fill:#000000;fill-opacity:1;stroke:none;font-family:Sans"
     x="99.850563"
     y="20.8349"
     id="text3059"
     sodipodi:linespacing="125%"
     transform="scale(0.76628164,1.3050032)"><tspan
       sodipodi:role="line"
       id="tspan3061"
       x="99.850563"
       y="20.8349">-</tspan></text>
  <text
     xml:space="preserve"
     style="font-size:9.15950871px;font-style:normal;font-weight:normal;line-height:125%;letter-spacing:0px;word-spacing:0px;fill:#000000;fill-opacity:1;stroke:none;font-family:Sans"
     x="458.95013"
     y="22.742472"
     id="text3063"
     sodipodi:linespacing="125%"
     transform="scale(0.76628164,1.3050032)"><tspan
       sodipodi:role="line"
       id="tspan3065"
       x="458.95013"
       y="22.742472"
       style="font-size:7.32760715px">Scope</tspan></text>
  <text
     xml:space="preserve"
     style="font-size:9.15950871px;font-style:normal;font-weight:normal;line-height:125%;letter-spacing:0px;word-spacing:0px;fill:#000000;fill-opacity:1;stroke:none;font-family:Sans"
     x="272.48544"
     y="14.635306"
     id="text3067"
     sodipodi:linespacing="125%"
     transform="scale(0.76628164,1.3050032)"><tspan
       sodipodi:role="line"
       id="tspan3069"
       x="272.48544"
       y="14.635306"
       style="font-size:7.32760715px">+</tspan></text>
  <text
     xml:space="preserve"
     style="font-size:9.15950871px;font-style:normal;font-weight:normal;line-height:125%;letter-spacing:0px;word-spacing:0px;fill:#000000;fill-opacity:1;stroke:none;font-family:Sans"
     x="279.63882"
     y="18.450445"
     id="text3071"
     sodipodi:linespacing="125%"
     transform="scale(0.76628164,1.3050032)"><tspan
       sodipodi:role="line"
       id="tspan3073"
       x="279.63882"
       y="18.450445">-</tspan></text>
  <text
     xml:space="preserve"
     style="font-size:16px;font-style:normal;font-weight:normal;line-height:125%;letter-spacing:0px;word-spacing:0px;fill:#000000;fill-opacity:1;stroke:none;font-family:Sans"
     x="480.1478"
     y="35.778248"
     id="text3075"
     sodipodi:linespacing="125%"><tspan
       sodipodi:role="line"
       id="tspan3077"
       x="480.1478"
       y="35.778248" /></text>
  <text
     xml:space="preserve"
     style="font-size:9.15950871px;font-style:normal;font-weight:normal;line-height:125%;letter-spacing:0px;word-spacing:0px;fill:#000000;fill-opacity:1;stroke:none;font-family:Sans"
     x="269.62408"
     y="50.879086"
     id="text3079"
     sodipodi:linespacing="125%"
     transform="scale(0.76628164,1.3050032)"><tspan
       sodipodi:role="line"
       id="tspan3081"
       x="269.62408"
       y="50.879086"
       style="font-size:8.24355793px">Qe(s)</tspan></text>
  <text
     xml:space="preserve"
     style="font-size:16px;font-style:normal;font-weight:normal;line-height:125%;letter-spacing:0px;word-spacing:0px;fill:#000000;fill-opacity:1;stroke:none;font-family:Sans"
     x="800.86963"
     y="18.284327"
     id="text3083"
     sodipodi:linespacing="125%"><tspan
       sodipodi:role="line"
       id="tspan3085"
       x="800.86963"
       y="18.284327" /></text>
  <text
     xml:space="preserve"
     style="font-size:16px;font-style:normal;font-weight:normal;line-height:125%;letter-spacing:0px;word-spacing:0px;fill:#000000;fill-opacity:1;stroke:none;font-family:Sans"
     x="791.70605"
     y="13.28606"
     id="text3087"
     sodipodi:linespacing="125%"><tspan
       sodipodi:role="line"
       id="tspan3089"
       x="791.70605"
       y="13.28606" /></text>
  <text
     xml:space="preserve"
     style="font-size:9.15950871px;font-style:normal;font-weight:normal;line-height:125%;letter-spacing:0px;word-spacing:0px;fill:#000000;fill-opacity:1;stroke:none;font-family:Sans"
     x="453.70435"
     y="40.38747"
     id="text3091"
     sodipodi:linespacing="125%"
     transform="scale(0.76628164,1.3050032)"><tspan
       sodipodi:role="line"
       id="tspan3093"
       x="453.70435"
       y="40.38747">Vout(s)</tspan></text>
  <text
     xml:space="preserve"
     style="font-size:9.15950871px;font-style:normal;font-weight:normal;line-height:125%;letter-spacing:0px;word-spacing:0px;fill:#000000;fill-opacity:1;stroke:none;font-family:Sans"
     x="4.9491043"
     y="38.479912"
     id="text3095"
     sodipodi:linespacing="125%"
     transform="scale(0.76628164,1.3050032)"><tspan
       sodipodi:role="line"
       id="tspan3097"
       x="4.9491043"
       y="38.479912">Vin(s)</tspan></text>
  <text
     xml:space="preserve"
     style="font-size:9.15950871px;font-style:normal;font-weight:normal;line-height:125%;letter-spacing:0px;word-spacing:0px;fill:#000000;fill-opacity:1;stroke:none;font-family:Sans"
     x="186.64488"
     y="34.07011"
     id="text3099"
     sodipodi:linespacing="125%"
     transform="scale(0.76628164,1.3050032)"><tspan
       sodipodi:role="line"
       id="tspan3101"
       x="186.64488"
       y="34.07011"
       style="font-size:4.57975435px">Integrator</tspan></text>
  <text
     xml:space="preserve"
     style="font-size:16px;font-style:normal;font-weight:normal;line-height:125%;letter-spacing:0px;word-spacing:0px;fill:#000000;fill-opacity:1;stroke:none;font-family:Sans"
     x="336.03131"
     y="-5.0408859"
     id="text3103"
     sodipodi:linespacing="125%"><tspan
       sodipodi:role="line"
       id="tspan3105"
       x="336.03131"
       y="-5.0408859" /></text>
  <text
     xml:space="preserve"
     style="font-size:16px;font-style:normal;font-weight:normal;line-height:125%;letter-spacing:0px;word-spacing:0px;fill:#000000;fill-opacity:1;stroke:none;font-family:Sans"
     x="331.86609"
     y="-10.872191"
     id="text3107"
     sodipodi:linespacing="125%"><tspan
       sodipodi:role="line"
       id="tspan3109"
       x="331.86609"
       y="-10.872191" /></text>
  <text
     xml:space="preserve"
     style="font-size:9.15950871px;font-style:normal;font-weight:normal;line-height:125%;letter-spacing:0px;word-spacing:0px;fill:#000000;fill-opacity:1;stroke:none;font-family:Sans"
     x="188.07555"
     y="24.19865"
     id="text3111"
     sodipodi:linespacing="125%"
     transform="scale(0.76628164,1.3050032)"><tspan
       sodipodi:role="line"
       id="tspan3113"
       x="188.07555"
       y="24.19865" /></text>
  <text
     xml:space="preserve"
     style="font-size:20px;font-style:normal;font-weight:normal;line-height:125%;letter-spacing:0px;word-spacing:0px;fill:#000000;fill-opacity:1;stroke:none;font-family:Sans"
     x="181.8694"
     y="22.445381"
     id="text3016"
     sodipodi:linespacing="125%"
     transform="matrix(0.80000005,0,0,0.80000005,-1.2068957e-5,0)"><tspan
       sodipodi:role="line"
       id="tspan3018"
       x="181.8694"
       y="22.445381"
       style="font-size:11px" /></text>
  <text
     xml:space="preserve"
     style="font-size:11.00000005px;font-style:normal;font-weight:normal;line-height:125%;letter-spacing:0px;word-spacing:0px;fill:#000000;fill-opacity:1;stroke:none;font-family:Sans"
     x="178.92415"
     y="23.918009"
     id="text3024"
     sodipodi:linespacing="125%"
     transform="matrix(0.80000005,0,0,0.80000005,-1.2068957e-5,0)"><tspan
       sodipodi:role="line"
       id="tspan3026"
       x="178.92415"
       y="23.918009" /></text>
  <text
     xml:space="preserve"
     style="font-size:20px;font-style:normal;font-weight:normal;line-height:125%;letter-spacing:0px;word-spacing:0px;fill:#000000;fill-opacity:1;stroke:none;font-family:Sans"
     x="177"
     y="26.290176"
     id="text3028"
     sodipodi:linespacing="125%"
     transform="matrix(0.80000005,0,0,0.80000005,-1.2068957e-5,0)"><tspan
       sodipodi:role="line"
       id="tspan3030"
       x="177"
       y="26.290176"
       style="font-size:11px"> 1/s</tspan></text>
</svg>
