<?xml version="1.0" encoding="UTF-8" standalone="no"?>
<svg
   xmlns:dc="http://purl.org/dc/elements/1.1/"
   xmlns:cc="http://creativecommons.org/ns#"
   xmlns:rdf="http://www.w3.org/1999/02/22-rdf-syntax-ns#"
   xmlns:svg="http://www.w3.org/2000/svg"
   xmlns="http://www.w3.org/2000/svg"
   xmlns:sodipodi="http://sodipodi.sourceforge.net/DTD/sodipodi-0.dtd"
   xmlns:inkscape="http://www.inkscape.org/namespaces/inkscape"
   version="1.0"
   width="542.70929"
   height="221.6985"
   viewBox="0 0 434.16743 177.3588"
   preserveAspectRatio="xMidYMid meet"
   id="svg3127"
   inkscape:version="0.48.4 r9939"
   sodipodi:docname="NoiseShaping1.svg">
  <defs
     id="defs3229" />
  <sodipodi:namedview
     pagecolor="#ffffff"
     bordercolor="#666666"
     borderopacity="1"
     objecttolerance="10"
     gridtolerance="10"
     guidetolerance="10"
     inkscape:pageopacity="0"
     inkscape:pageshadow="2"
     inkscape:window-width="1315"
     inkscape:window-height="744"
     id="namedview3227"
     showgrid="false"
     inkscape:zoom="0.86533358"
     inkscape:cx="161.40924"
     inkscape:cy="74.540841"
     inkscape:window-x="51"
     inkscape:window-y="24"
     inkscape:window-maximized="1"
     inkscape:current-layer="svg3127"
     showguides="true"
     inkscape:guide-bbox="true"
     inkscape:snap-bbox="false"
     fit-margin-top="0"
     fit-margin-left="0"
     fit-margin-right="0"
     fit-margin-bottom="0">
    <sodipodi:guide
       orientation="0,1"
       position="-143.5143,431.53484"
       id="guide3231" />
  </sodipodi:namedview>
  <metadata
     id="metadata3129">
Created by potrace 1.12, written by Peter Selinger 2001-2015
<rdf:RDF>
  <cc:Work
     rdf:about="">
    <dc:format>image/svg+xml</dc:format>
    <dc:type
       rdf:resource="http://purl.org/dc/dcmitype/StillImage" />
  </cc:Work>
</rdf:RDF>
</metadata>
  <g
     transform="matrix(0.03987819,0,0,-0.06294971,-7.2442642,188.21963)"
     id="g3131"
     style="fill:#000000;stroke:none">
    <path
       d="m 370,2980 c 0,-7 250,-10 730,-10 480,0 730,3 730,10 0,7 -250,10 -730,10 -480,0 -730,-3 -730,-10 z"
       id="path3133"
       inkscape:connector-curvature="0" />
    <path
       d="m 6950,2745 0,-245 -77,39 c -124,62 -123,62 -123,2 l 0,-51 -255,0 c -218,0 -255,2 -255,15 0,8 -11,22 -25,31 -23,15 -27,15 -50,0 -14,-9 -25,-23 -25,-31 0,-13 -160,-15 -1295,-15 -1225,0 -1296,1 -1301,18 -46,149 -162,252 -284,252 -51,0 -126,-30 -169,-67 -47,-39 -91,-120 -91,-165 0,-16 -2,-28 -5,-28 -3,0 -46,20 -95,45 -49,25 -92,45 -95,45 -3,0 -5,-22 -5,-50 l 0,-50 -455,0 -455,0 0,208 c -1,156 -4,211 -14,225 -7,9 -16,17 -20,17 -3,0 -6,-202 -6,-450 0,-443 0,-450 20,-450 19,0 20,7 20,220 l 0,220 455,0 455,0 0,-40 c 0,-22 5,-40 10,-40 6,0 51,20 100,45 l 90,45 0,-27 c 0,-44 43,-125 87,-164 21,-19 65,-46 96,-59 31,-13 57,-27 57,-32 0,-5 -18,-44 -40,-88 l -40,-80 100,0 99,0 -40,83 c -35,72 -37,82 -22,85 86,12 124,26 162,59 51,43 80,98 88,164 l 6,49 1289,0 1289,0 29,-22 30,-22 0,-733 0,-733 -150,0 -150,0 0,45 c 0,25 -4,45 -9,45 -5,0 -47,-18 -92,-40 l -82,-40 -22,54 c -43,105 -105,165 -196,186 -152,37 -288,-57 -323,-222 l -6,-28 -210,0 -210,0 0,45 c 0,25 -5,45 -10,45 -6,0 -42,-16 -80,-35 -38,-19 -74,-35 -80,-35 -6,0 -10,59 -10,165 0,97 -5,183 -12,210 l -12,45 -451,-2 -450,-3 -3,-217 -2,-218 -180,0 -180,0 -3,533 -2,532 -3,-537 -2,-538 185,0 185,0 2,-217 3,-218 30,-3 c 17,-2 34,-8 40,-13 15,-14 828,-12 843,3 9,9 12,72 12,220 0,162 3,208 13,208 7,0 45,-16 86,-35 40,-19 75,-35 77,-35 2,0 4,20 4,45 l 0,45 209,0 209,0 12,-50 c 23,-95 94,-170 200,-210 19,-8 36,-14 38,-16 2,-1 -15,-39 -38,-84 -23,-45 -40,-83 -38,-85 4,-4 86,-7 146,-6 39,1 43,3 37,21 -6,20 -2,20 1614,20 l 1621,0 0,946 0,946 23,19 c 20,17 42,18 275,19 l 252,0 0,-40 c 0,-22 5,-40 10,-40 6,0 51,20 100,45 l 90,45 0,-205 c 0,-191 1,-205 18,-205 10,0 27,-7 38,-15 16,-12 115,-14 684,-15 505,0 669,3 678,12 8,8 12,56 12,151 l 0,139 69,72 70,71 -70,71 -69,72 0,83 c 0,46 -3,108 -6,137 l -7,52 -708,0 -709,0 0,-205 c 0,-113 -2,-205 -5,-205 -3,0 -46,20 -95,45 -49,25 -92,45 -95,45 -3,0 -5,-22 -5,-50 l 0,-50 -255,0 c -218,0 -255,2 -255,15 0,8 -11,22 -25,31 -23,15 -27,15 -50,0 -14,-9 -25,-23 -25,-31 0,-13 -31,-15 -210,-15 l -210,0 0,209 c 0,173 -3,211 -15,221 -8,7 -15,25 -15,41 l 0,29 -645,0 -645,0 0,-245 z m 1270,-250 0,-475 -625,0 -625,0 0,183 c 0,100 -3,314 -7,475 l -6,292 631,0 632,0 0,-475 z m 2680,0 0,-395 -695,0 -695,0 0,395 0,395 695,0 695,0 0,-395 z m -7515,211 c 166,-98 159,-338 -14,-428 -121,-63 -272,-14 -331,108 -63,129 3,290 137,340 58,22 152,12 208,-20 z m 7595,-191 c 16,-19 7,-40 -28,-63 -22,-14 -22,-14 -22,42 0,52 2,56 18,47 10,-5 25,-17 32,-26 z M 6985,2000 c 18,0 37,-4 40,-10 4,-6 220,-10 615,-10 602,0 609,0 620,20 7,14 10,100 9,248 l -1,227 206,3 c 199,2 207,2 236,-20 l 30,-22 0,-938 0,-938 -1620,0 -1620,0 -19,37 c -10,21 -22,48 -25,61 -7,20 -4,22 26,22 42,0 114,33 151,68 38,36 66,92 74,147 3,25 10,45 15,45 4,0 40,-16 78,-35 38,-19 74,-35 80,-35 5,0 10,20 10,45 l 0,45 155,0 155,0 0,741 0,741 23,19 c 20,17 42,18 275,19 l 252,0 0,-40 c 0,-26 4,-40 13,-39 6,0 50,20 97,43 l 85,44 3,-244 2,-244 35,0 z M 4530,965 l 0,-425 -440,0 -440,0 0,425 0,425 440,0 440,0 0,-425 z m 1007,222 c 82,-43 133,-127 133,-222 0,-77 -24,-129 -83,-181 -75,-66 -171,-82 -257,-43 -97,44 -144,117 -144,224 0,107 46,179 144,225 53,25 155,23 207,-3 z"
       id="path3135"
       inkscape:connector-curvature="0" />
    <path
       d="m 7069,2561 c -19,-15 -24,-29 -24,-66 0,-58 29,-86 84,-84 20,1 44,-2 54,-6 10,-4 17,-3 17,3 0,6 -5,12 -12,14 -9,3 -9,12 1,36 35,84 -52,158 -120,103 z m 76,-7 c 22,-9 37,-49 29,-80 -5,-21 -11,-24 -30,-20 -25,7 -34,-8 -11,-17 6,-3 0,-6 -15,-6 -17,-1 -33,7 -42,21 -41,58 6,126 69,102 z"
       id="path3137"
       inkscape:connector-curvature="0" />
    <path
       d="m 7615,2565 c -5,-11 -13,-24 -19,-28 -8,-6 -7,-10 2,-14 7,-3 12,-24 12,-54 0,-36 4,-51 15,-56 9,-3 19,-2 23,2 4,4 1,10 -5,12 -8,3 -13,22 -13,48 0,25 5,45 13,48 9,4 9,8 1,14 -7,4 -14,17 -16,28 l -5,20 -8,-20 z"
       id="path3139"
       inkscape:connector-curvature="0" />
    <path
       d="m 7690,2570 c 0,-5 5,-10 10,-10 6,0 10,5 10,10 0,6 -4,10 -10,10 -5,0 -10,-4 -10,-10 z"
       id="path3141"
       inkscape:connector-curvature="0" />
    <path
       d="m 7220,2501 c 0,-22 4,-51 10,-65 8,-21 15,-25 50,-23 l 40,1 0,63 c 0,35 -4,63 -10,63 -5,0 -10,-19 -10,-43 0,-43 -13,-67 -37,-67 -9,0 -13,17 -13,55 0,42 -3,55 -15,55 -11,0 -15,-11 -15,-39 z"
       id="path3143"
       inkscape:connector-curvature="0" />
    <path
       d="m 7364,2523 c -13,-13 -14,-18 -3,-22 7,-2 15,1 17,8 4,13 52,15 52,1 0,-5 -14,-13 -32,-18 -73,-19 -62,-77 16,-77 l 46,-1 -6,51 c -3,27 -7,56 -9,63 -6,18 -61,15 -81,-5 z m 62,-79 c -7,-19 -51,-15 -51,6 0,15 48,32 53,18 2,-5 1,-16 -2,-24 z"
       id="path3145"
       inkscape:connector-curvature="0" />
    <path
       d="m 7480,2473 c 0,-49 3,-63 15,-63 11,0 15,12 15,50 0,37 4,52 16,57 22,8 34,-14 34,-64 0,-24 5,-43 10,-43 13,0 13,86 0,110 -8,14 -20,19 -50,17 l -40,-1 0,-63 z"
       id="path3147"
       inkscape:connector-curvature="0" />
    <path
       d="m 7690,2475 c 0,-37 4,-65 10,-65 6,0 10,28 10,65 0,37 -4,65 -10,65 -6,0 -10,-28 -10,-65 z"
       id="path3149"
       inkscape:connector-curvature="0" />
    <path
       d="m 7730,2531 c 0,-6 14,-11 31,-13 l 31,-3 -36,-45 c -20,-25 -36,-48 -36,-52 0,-5 25,-8 55,-8 30,0 55,5 55,10 0,6 -19,10 -41,10 l -41,0 36,44 c 20,24 36,49 36,55 0,6 -19,11 -45,11 -25,0 -45,-4 -45,-9 z"
       id="path3151"
       inkscape:connector-curvature="0" />
    <path
       d="m 7846,2518 c -44,-63 26,-145 79,-92 21,21 13,29 -14,12 -15,-9 -26,-10 -38,-2 -34,21 -26,34 21,34 38,0 46,3 46,18 0,24 -31,52 -58,52 -11,0 -28,-10 -36,-22 z m 72,-15 c 2,-9 -8,-13 -33,-13 -33,0 -36,2 -25,15 15,18 51,16 58,-2 z"
       id="path3153"
       inkscape:connector-curvature="0" />
    <path
       d="m 7970,2473 c 0,-35 4,-63 10,-63 6,0 10,23 10,51 0,42 3,52 20,56 30,8 24,22 -10,21 l -30,-1 0,-64 z"
       id="path3155"
       inkscape:connector-curvature="0" />
    <path
       d="m 9980,2505 0,-85 49,0 c 42,0 53,4 70,26 12,15 21,41 21,59 0,18 -9,44 -21,59 -17,22 -28,26 -70,26 l -49,0 0,-85 z m 104,49 c 9,-8 16,-31 16,-49 0,-43 -22,-65 -66,-65 l -34,0 0,65 0,65 34,0 c 19,0 42,-7 50,-16 z"
       id="path3157"
       inkscape:connector-curvature="0" />
    <path
       d="m 10200,2586 c 0,-3 -13,-41 -30,-85 -16,-45 -25,-81 -20,-81 6,0 15,11 20,25 8,20 16,25 45,25 29,0 36,-4 41,-25 3,-14 12,-25 20,-25 10,0 7,17 -13,68 -14,37 -28,75 -30,85 -5,14 -33,26 -33,13 z m 18,-94 c -28,-5 -30,0 -16,39 l 11,33 12,-34 c 11,-32 10,-35 -7,-38 z"
       id="path3159"
       inkscape:connector-curvature="0" />
    <path
       d="m 10333,2564 c -22,-22 -25,-32 -20,-67 7,-49 35,-77 78,-77 28,0 69,30 69,50 0,16 -14,12 -33,-10 -34,-40 -97,-11 -97,45 0,53 59,84 94,49 9,-8 21,-14 28,-12 7,3 4,12 -10,26 -30,30 -76,29 -109,-4 z"
       id="path3161"
       inkscape:connector-curvature="0" />
    <path
       d="m 3130,2515 c 0,-20 -5,-25 -26,-25 -31,0 -28,-23 4,-28 12,-2 22,-12 24,-24 5,-32 28,-35 28,-4 0,21 5,26 25,26 16,0 25,6 25,15 0,9 -9,15 -25,15 -20,0 -25,5 -25,25 0,16 -6,25 -15,25 -9,0 -15,-9 -15,-25 z"
       id="path3163"
       inkscape:connector-curvature="0" />
    <path
       d="m 3260,2385 c 0,-20 -5,-25 -25,-25 -14,0 -25,-4 -25,-10 0,-5 11,-10 25,-10 20,0 25,-5 25,-25 0,-16 6,-25 15,-25 9,0 15,9 15,25 0,20 5,25 25,25 14,0 25,5 25,10 0,6 -11,10 -25,10 -20,0 -25,5 -25,25 0,16 -6,25 -15,25 -9,0 -15,-9 -15,-25 z"
       id="path3165"
       inkscape:connector-curvature="0" />
    <path
       d="m 4158,1175 c -33,-29 -38,-51 -8,-35 19,10 20,8 20,-60 0,-56 3,-70 15,-70 12,0 15,17 15,95 0,52 -3,95 -7,95 -5,0 -20,-12 -35,-25 z"
       id="path3167"
       inkscape:connector-curvature="0" />
    <path
       d="m 4040,1080 c 0,-5 16,-10 35,-10 19,0 35,5 35,10 0,6 -16,10 -35,10 -19,0 -35,-4 -35,-10 z"
       id="path3169"
       inkscape:connector-curvature="0" />
    <path
       d="m 3890,1060 c 0,-5 23,-10 51,-10 l 50,0 -55,-72 c -31,-39 -56,-77 -56,-85 0,-9 18,-13 70,-13 83,0 95,18 14,22 l -55,3 55,72 c 31,39 56,76 56,82 0,7 -25,11 -65,11 -37,0 -65,-4 -65,-10 z"
       id="path3171"
       inkscape:connector-curvature="0" />
    <path
       d="m 5560,995 c 0,-20 -5,-25 -25,-25 -16,0 -25,-6 -25,-15 0,-9 9,-15 25,-15 20,0 25,-5 25,-25 0,-14 5,-25 10,-25 6,0 10,11 10,25 0,20 5,25 25,25 16,0 25,6 25,15 0,9 -9,15 -25,15 -20,0 -25,5 -25,25 0,14 -4,25 -10,25 -5,0 -10,-11 -10,-25 z"
       id="path3173"
       inkscape:connector-curvature="0" />
    <path
       d="m 5380,830 c 0,-6 28,-10 65,-10 37,0 65,4 65,10 0,6 -28,10 -65,10 -37,0 -65,-4 -65,-10 z"
       id="path3175"
       inkscape:connector-curvature="0" />
    <path
       d="m 320,2738 0,-201 -55,57 c -55,58 -78,66 -83,30 -2,-12 17,-39 53,-74 l 55,-54 -56,-57 c -54,-55 -66,-87 -37,-96 7,-3 37,19 68,48 l 55,52 0,-202 c 0,-127 4,-201 10,-201 7,0 10,157 10,450 0,293 -3,450 -10,450 -6,0 -10,-74 -10,-202 z"
       id="path3177"
       inkscape:connector-curvature="0" />
    <path
       d="m 2258,2886 c 20,-33 20,-34 1,-62 -21,-33 -24,-44 -9,-44 6,0 16,11 22,25 6,14 14,25 18,25 4,0 12,-11 18,-25 6,-14 19,-25 27,-25 13,0 11,8 -9,37 l -25,37 20,33 c 11,18 16,33 10,33 -6,0 -16,-9 -23,-20 -7,-11 -16,-20 -20,-20 -4,0 -10,9 -13,20 -3,11 -13,20 -22,20 -12,0 -12,-5 5,-34 z"
       id="path3179"
       inkscape:connector-curvature="0" />
    <path
       d="m 4870,2892 c 0,-5 9,-35 20,-67 25,-73 25,-84 -2,-94 -15,-5 -18,-10 -9,-16 7,-4 19,-1 27,6 19,20 76,181 62,177 -6,-2 -19,-26 -29,-54 l -17,-49 -11,28 c -6,15 -14,39 -17,52 -6,23 -24,36 -24,17 z"
       id="path3181"
       inkscape:connector-curvature="0" />
    <path
       d="m 8620,2871 c 0,-28 11,-52 21,-45 16,9 11,64 -6,64 -8,0 -15,-9 -15,-19 z"
       id="path3183"
       inkscape:connector-curvature="0" />
    <path
       d="m 8528,2806 c 20,-33 20,-34 1,-62 -21,-33 -24,-44 -9,-44 6,0 16,11 22,25 6,14 14,25 18,25 4,0 12,-11 18,-25 6,-14 19,-25 27,-25 13,0 11,8 -9,37 l -25,37 20,33 c 23,37 9,46 -15,11 l -16,-22 -16,22 c -24,35 -38,25 -16,-12 z"
       id="path3185"
       inkscape:connector-curvature="0" />
    <path
       d="m 420,2495 c 0,-50 4,-85 10,-85 6,0 10,18 10,40 l 0,40 40,0 c 22,0 40,5 40,10 0,6 -18,10 -40,10 -36,0 -40,3 -40,25 0,23 4,25 45,25 25,0 45,5 45,10 0,6 -25,10 -55,10 l -55,0 0,-85 z"
       id="path3187"
       inkscape:connector-curvature="0" />
    <path
       d="m 570,2570 c 0,-5 5,-10 10,-10 6,0 10,5 10,10 0,6 -4,10 -10,10 -5,0 -10,-4 -10,-10 z"
       id="path3189"
       inkscape:connector-curvature="0" />
    <path
       d="m 620,2495 c 0,-50 4,-85 10,-85 6,0 10,35 10,85 0,50 -4,85 -10,85 -6,0 -10,-35 -10,-85 z"
       id="path3191"
       inkscape:connector-curvature="0" />
    <path
       d="m 685,2565 c -5,-11 -13,-24 -19,-28 -8,-6 -7,-10 2,-14 7,-3 12,-24 12,-54 0,-36 4,-51 15,-56 9,-3 19,-2 23,2 4,4 1,10 -5,12 -8,3 -13,22 -13,48 0,25 5,45 13,48 9,4 9,8 1,14 -7,4 -14,17 -16,28 l -5,20 -8,-20 z"
       id="path3193"
       inkscape:connector-curvature="0" />
    <path
       d="m 1030,2496 c 0,-51 4,-86 10,-86 6,0 10,30 11,68 l 1,67 20,-67 c 12,-38 26,-68 33,-68 6,0 21,28 32,63 l 21,62 1,-62 c 1,-35 5,-63 11,-63 6,0 10,35 10,85 0,105 -18,115 -45,25 -10,-34 -22,-63 -26,-66 -5,-2 -17,24 -27,58 -12,39 -26,64 -36,66 -14,3 -16,-9 -16,-82 z"
       id="path3195"
       inkscape:connector-curvature="0" />
    <path
       d="m 1410,2555 c 0,-22 -3,-25 -24,-19 -31,7 -56,-19 -56,-60 0,-41 24,-63 68,-63 l 32,0 0,84 c 0,49 -4,83 -10,83 -5,0 -10,-11 -10,-25 z m -12,-47 c 30,-30 -1,-94 -33,-68 -16,13 -19,38 -9,64 7,19 25,21 42,4 z"
       id="path3197"
       inkscape:connector-curvature="0" />
    <path
       d="m 1580,2495 c 0,-50 4,-85 10,-85 6,0 10,35 10,85 0,50 -4,85 -10,85 -6,0 -10,-35 -10,-85 z"
       id="path3199"
       inkscape:connector-curvature="0" />
    <path
       d="m 570,2475 c 0,-37 4,-65 10,-65 6,0 10,28 10,65 0,37 -4,65 -10,65 -6,0 -10,-28 -10,-65 z"
       id="path3201"
       inkscape:connector-curvature="0" />
    <path
       d="m 756,2518 c -44,-63 26,-145 79,-92 21,21 13,29 -14,12 -15,-9 -26,-10 -38,-2 -34,21 -26,34 21,34 38,0 46,3 46,18 0,24 -31,52 -58,52 -11,0 -28,-10 -36,-22 z m 72,-15 c 2,-9 -8,-13 -33,-13 -33,0 -36,2 -25,15 15,18 51,16 58,-2 z"
       id="path3203"
       inkscape:connector-curvature="0" />
    <path
       d="m 880,2473 c 0,-35 4,-63 10,-63 6,0 10,23 10,51 0,42 3,52 20,56 30,8 24,22 -10,21 l -30,-1 0,-64 z"
       id="path3205"
       inkscape:connector-curvature="0" />
    <path
       d="m 1216,2518 c -45,-64 27,-146 77,-90 10,10 17,32 17,49 0,57 -64,84 -94,41 z m 62,-10 c 30,-30 -2,-93 -36,-71 -21,13 -27,50 -12,69 15,17 32,18 48,2 z"
       id="path3207"
       inkscape:connector-curvature="0" />
    <path
       d="m 1460,2501 c 0,-22 4,-51 10,-65 8,-21 15,-25 50,-23 l 40,1 0,63 c 0,35 -4,63 -10,63 -5,0 -10,-19 -10,-43 0,-43 -13,-67 -37,-67 -9,0 -13,17 -13,55 0,42 -3,55 -15,55 -11,0 -15,-11 -15,-39 z"
       id="path3209"
       inkscape:connector-curvature="0" />
    <path
       d="m 1656,2518 c -44,-63 26,-145 79,-92 21,21 13,29 -14,12 -15,-9 -26,-10 -38,-2 -34,21 -26,34 21,34 38,0 46,3 46,18 0,24 -31,52 -58,52 -11,0 -28,-10 -36,-22 z m 72,-15 c 2,-9 -8,-13 -33,-13 -33,0 -36,2 -25,15 15,18 51,16 58,-2 z"
       id="path3211"
       inkscape:connector-curvature="0" />
    <path
       d="m 370,2014 c 0,-4 8,-13 18,-20 14,-11 153,-13 730,-14 705,0 712,0 712,20 0,20 -7,20 -730,20 -401,0 -730,-3 -730,-6 z"
       id="path3213"
       inkscape:connector-curvature="0" />
    <path
       d="m 4830,1270 c -41,-41 -12,-120 44,-120 22,0 62,27 53,36 -2,2 -17,-2 -34,-8 -25,-9 -35,-9 -47,1 -27,23 -18,31 34,31 55,0 64,15 34,58 -19,28 -57,29 -84,2 z m 68,-12 c 21,-21 13,-28 -28,-28 -38,0 -40,2 -30,20 12,22 40,26 58,8 z"
       id="path3215"
       inkscape:connector-curvature="0" />
    <path
       d="m 3790,315 0,-95 51,0 c 65,0 85,11 99,56 15,45 0,108 -30,124 -10,5 -41,10 -69,10 l -51,0 0,-95 z m 114,59 c 10,-9 16,-33 16,-59 0,-53 -19,-75 -66,-75 l -34,0 0,75 0,75 34,0 c 19,0 42,-7 50,-16 z"
       id="path3217"
       inkscape:connector-curvature="0" />
    <path
       d="m 4120,315 c 0,-57 4,-95 10,-95 6,0 10,38 10,95 0,57 -4,95 -10,95 -6,0 -10,-38 -10,-95 z"
       id="path3219"
       inkscape:connector-curvature="0" />
    <path
       d="m 3980,340 c -41,-41 -12,-120 44,-120 22,0 62,27 53,36 -2,2 -18,-2 -36,-9 -29,-11 -34,-10 -47,8 -14,19 -13,20 36,23 55,3 64,18 34,60 -19,28 -57,29 -84,2 z m 68,-12 c 21,-21 13,-28 -28,-28 -38,0 -40,2 -30,20 12,22 40,26 58,8 z"
       id="path3221"
       inkscape:connector-curvature="0" />
    <path
       d="m 4180,345 c -17,-21 -7,-29 18,-14 20,13 52,7 52,-10 0,-6 -12,-13 -27,-16 -40,-9 -58,-20 -61,-39 -6,-30 17,-45 67,-44 l 47,1 -4,61 c -3,34 -10,64 -16,68 -19,13 -63,9 -76,-7 z m 70,-69 c 0,-19 -26,-38 -47,-34 -27,5 -22,31 7,39 37,10 40,10 40,-5 z"
       id="path3223"
       inkscape:connector-curvature="0" />
    <path
       d="m 4300,352 c 0,-5 9,-35 20,-67 25,-74 25,-84 -2,-94 -21,-8 -21,-10 -5,-16 10,-4 23,-3 28,2 16,16 69,185 57,181 -7,-3 -19,-26 -28,-54 l -17,-49 -17,53 c -10,28 -22,52 -27,52 -5,0 -9,-4 -9,-8 z"
       id="path3225"
       inkscape:connector-curvature="0" />
  </g>
</svg>
