<?xml version="1.0" encoding="UTF-8" standalone="no"?>
<svg
   xmlns:dc="http://purl.org/dc/elements/1.1/"
   xmlns:cc="http://creativecommons.org/ns#"
   xmlns:rdf="http://www.w3.org/1999/02/22-rdf-syntax-ns#"
   xmlns:svg="http://www.w3.org/2000/svg"
   xmlns="http://www.w3.org/2000/svg"
   xmlns:sodipodi="http://sodipodi.sourceforge.net/DTD/sodipodi-0.dtd"
   xmlns:inkscape="http://www.inkscape.org/namespaces/inkscape"
   version="1.0"
   width="553.86127"
   height="235.15579"
   viewBox="0 0 443.08901 188.12464"
   preserveAspectRatio="xMidYMid meet"
   id="svg3423"
   inkscape:version="0.48.4 r9939"
   sodipodi:docname="Delta_Sigma_ADC_Block1.svg">
  <defs
     id="defs3435" />
  <sodipodi:namedview
     pagecolor="#ffffff"
     bordercolor="#666666"
     borderopacity="1"
     objecttolerance="10"
     gridtolerance="10"
     guidetolerance="10"
     inkscape:pageopacity="0"
     inkscape:pageshadow="2"
     inkscape:window-width="1315"
     inkscape:window-height="744"
     id="namedview3433"
     showgrid="false"
     showguides="true"
     inkscape:guide-bbox="true"
     inkscape:zoom="0.89330784"
     inkscape:cx="475.6678"
     inkscape:cy="161.16031"
     inkscape:window-x="51"
     inkscape:window-y="24"
     inkscape:window-maximized="1"
     inkscape:current-layer="svg3423"
     fit-margin-top="0"
     fit-margin-left="0"
     fit-margin-right="0"
     fit-margin-bottom="0" />
  <metadata
     id="metadata3425">
Created by potrace 1.12, written by Peter Selinger 2001-2015
<rdf:RDF>
  <cc:Work
     rdf:about="">
    <dc:format>image/svg+xml</dc:format>
    <dc:type
       rdf:resource="http://purl.org/dc/dcmitype/StillImage" />
  </cc:Work>
</rdf:RDF>
</metadata>
  <g
     transform="matrix(0.04502937,0,0,-0.0744741,-15.760285,210.7617)"
     id="g3427"
     style="fill:#000000;stroke:none">
    <path
       d="m 4320,2690 c 0,-77 -2,-140 -5,-140 -3,0 -28,11 -55,25 l -50,25 0,-30 0,-30 -385,0 c -340,0 -385,2 -385,15 0,31 -40,93 -72,113 -47,28 -83,34 -127,22 -47,-12 -111,-79 -111,-115 0,-31 -8,-31 -70,0 l -50,25 0,-30 0,-30 -460,0 c -408,0 -460,2 -460,15 0,26 -38,93 -62,110 -38,26 -94,37 -136,26 -47,-13 -99,-66 -108,-109 -4,-17 -11,-32 -16,-32 -5,0 -31,11 -58,25 l -50,25 0,-30 0,-30 -420,0 -420,0 0,78 c 0,42 -3,94 -6,115 l -7,37 -228,0 -229,0 0,-230 0,-230 229,0 c 199,0 230,2 235,16 3,9 6,58 6,110 l 0,94 420,0 420,0 0,-25 0,-25 50,25 c 62,31 70,31 70,0 0,-33 62,-101 106,-115 19,-6 34,-14 34,-16 0,-3 -11,-27 -25,-54 l -25,-50 30,0 30,0 0,-845 0,-845 1160,0 1160,0 0,-125 0,-125 570,0 570,0 0,125 c 0,69 2,125 5,125 3,0 28,-11 55,-25 l 50,-25 0,60 0,60 -50,-25 c -27,-14 -52,-25 -55,-25 -3,0 -5,56 -5,125 l 0,125 -570,0 -570,0 0,-130 0,-130 -1155,0 -1155,0 0,840 0,840 25,0 24,0 -24,52 -25,53 37,13 c 50,17 91,58 105,104 l 11,38 459,0 458,0 0,-25 0,-25 50,25 c 62,31 70,31 70,0 0,-32 59,-98 103,-116 17,-7 33,-13 35,-15 2,-1 -8,-25 -22,-53 l -26,-51 30,0 30,0 0,-215 0,-215 1160,0 1160,0 0,333 c 0,246 3,336 12,345 9,9 118,12 430,12 l 418,0 0,-25 0,-25 50,25 c 27,14 52,25 55,25 3,0 5,-56 5,-125 l 0,-125 573,2 572,3 3,123 3,122 287,0 c 211,0 291,-3 300,-12 9,-9 12,-238 12,-970 l 0,-958 -1407,-3 -1408,-2 1413,-3 1412,-2 0,963 c 0,736 3,966 12,975 9,9 165,12 640,12 l 628,0 0,-25 0,-25 50,25 c 27,14 52,25 54,25 3,0 7,-53 8,-117 l 3,-118 233,-3 232,-2 0,250 0,250 -232,-2 -233,-3 -3,-117 c -1,-65 -5,-118 -8,-118 -2,0 -27,11 -54,25 l -50,25 0,-30 0,-30 -244,0 -244,0 13,37 c 13,37 5,86 -17,99 -6,4 -5,-2 1,-14 14,-26 14,-77 1,-103 -9,-17 -22,-19 -100,-19 l -88,0 -12,35 c -9,26 -9,44 -1,67 14,41 7,47 -9,8 -12,-29 -11,-56 5,-92 6,-15 -16,-17 -278,-18 -246,0 -285,2 -291,15 -7,19 -42,20 -50,0 -5,-13 -46,-15 -291,-15 l -285,0 0,99 c 0,54 -3,113 -6,130 l -6,31 -569,0 -569,0 0,-125 c 0,-69 -2,-125 -5,-125 -3,0 -28,11 -55,25 l -50,25 0,-30 0,-30 -419,0 c -363,0 -420,2 -425,15 -3,8 -14,15 -25,15 -10,0 -21,-7 -25,-15 -4,-12 -24,-15 -91,-15 l -85,0 0,145 0,145 -535,0 -535,0 0,-140 z m 1050,-150 0,-280 -515,0 -515,0 0,280 0,280 515,0 515,0 0,-280 z m 2330,0 0,-250 -555,0 -555,0 0,250 0,250 555,0 555,0 0,-250 z m 2470,0 0,-230 -215,0 -215,0 0,230 0,230 215,0 215,0 0,-230 z m -9370,0 0,-220 -220,0 -220,0 0,220 0,220 220,0 220,0 0,-220 z m 1207,120 c 87,-52 83,-198 -6,-245 -125,-64 -255,64 -194,192 33,69 131,96 200,53 z m 1350,0 c 87,-52 83,-198 -6,-245 -125,-64 -255,64 -194,192 33,69 131,96 200,53 z m 853,-155 0,-25 50,25 c 27,14 52,25 55,25 3,0 5,-63 5,-140 l 0,-140 535,0 535,0 0,140 0,140 88,0 c 55,0 92,-4 100,-12 9,-9 12,-98 12,-340 l 0,-328 -1150,0 -1150,0 0,210 0,210 25,0 24,0 -24,53 -25,52 26,3 c 37,5 124,94 124,127 l 0,25 385,0 385,0 0,-25 z m 1160,-1915 0,-250 -555,0 -555,0 0,250 0,250 555,0 555,0 0,-250 z"
       id="path3429"
       inkscape:connector-curvature="0" />
    <path
       d="m 9814,2720 c -20,-8 -21,-16 -20,-97 l 1,-88 173,-3 173,-2 -3,97 -3,98 -150,2 c -82,1 -160,-2 -171,-7 z m 308,-90 c -2,-41 -6,-78 -8,-81 -5,-8 -245,-12 -277,-4 -26,7 -27,9 -27,86 l 0,80 158,-3 157,-3 -3,-75 z"
       id="path3431"
       inkscape:connector-curvature="0" />
  </g>
  <text
     xml:space="preserve"
     style="font-size:9.26553726px;font-style:normal;font-weight:normal;line-height:125%;letter-spacing:0px;word-spacing:0px;fill:#000000;fill-opacity:1;stroke:none;font-family:Sans"
     x="1.7343199"
     y="16.466177"
     id="text3437"
     sodipodi:linespacing="125%"
     transform="scale(0.77758037,1.2860407)"><tspan
       sodipodi:role="line"
       id="tspan3439"
       x="1.7343199"
       y="16.466177">Input</tspan></text>
  <text
     xml:space="preserve"
     style="font-size:9.26553726px;font-style:normal;font-weight:normal;line-height:125%;letter-spacing:0px;word-spacing:0px;fill:#000000;fill-opacity:1;stroke:none;font-family:Sans"
     x="83.877686"
     y="19.399874"
     id="text3441"
     sodipodi:linespacing="125%"
     transform="scale(0.77758037,1.2860407)"><tspan
       sodipodi:role="line"
       id="tspan3443"
       x="83.877686"
       y="19.399874">+</tspan></text>
  <text
     xml:space="preserve"
     style="font-size:9.26553726px;font-style:normal;font-weight:normal;line-height:125%;letter-spacing:0px;word-spacing:0px;fill:#000000;fill-opacity:1;stroke:none;font-family:Sans"
     x="91.945343"
     y="23.800404"
     id="text3445"
     sodipodi:linespacing="125%"
     transform="scale(0.77758037,1.2860407)"><tspan
       sodipodi:role="line"
       id="tspan3447"
       x="91.945343"
       y="23.800404">-</tspan></text>
  <text
     xml:space="preserve"
     style="font-size:16px;font-style:normal;font-weight:normal;line-height:125%;letter-spacing:0px;word-spacing:0px;fill:#000000;fill-opacity:1;stroke:none;font-family:Sans"
     x="348.74832"
     y="-66.441078"
     id="text3449"
     sodipodi:linespacing="125%"><tspan
       sodipodi:role="line"
       id="tspan3451"
       x="348.74832"
       y="-66.441078" /></text>
  <text
     xml:space="preserve"
     style="font-size:16px;font-style:normal;font-weight:normal;line-height:125%;letter-spacing:0px;word-spacing:0px;fill:#000000;fill-opacity:1;stroke:none;font-family:Sans"
     x="284.15701"
     y="-36.045166"
     id="text3453"
     sodipodi:linespacing="125%"><tspan
       sodipodi:role="line"
       id="tspan3455"
       x="284.15701"
       y="-36.045166" /></text>
  <text
     xml:space="preserve"
     style="font-size:9.26553726px;font-style:normal;font-weight:normal;line-height:125%;letter-spacing:0px;word-spacing:0px;fill:#000000;fill-opacity:1;stroke:none;font-family:Sans"
     x="163.08736"
     y="18.666451"
     id="text3457"
     sodipodi:linespacing="125%"
     transform="scale(0.77758037,1.2860407)"><tspan
       sodipodi:role="line"
       x="163.08736"
       y="18.666451"
       style="font-size:6.48587561px"
       id="tspan3471">+</tspan></text>
  <text
     xml:space="preserve"
     style="font-size:16px;font-style:normal;font-weight:normal;line-height:125%;letter-spacing:0px;word-spacing:0px;fill:#000000;fill-opacity:1;stroke:none;font-family:Sans"
     x="300.62146"
     y="-25.913208"
     id="text3461"
     sodipodi:linespacing="125%"><tspan
       sodipodi:role="line"
       id="tspan3463"
       x="300.62146"
       y="-25.913208" /></text>
  <text
     xml:space="preserve"
     style="font-size:9.26553726px;font-style:normal;font-weight:normal;line-height:125%;letter-spacing:0px;word-spacing:0px;fill:#000000;fill-opacity:1;stroke:none;font-family:Sans"
     x="169.68817"
     y="24.533829"
     id="text3478"
     sodipodi:linespacing="125%"
     transform="scale(0.77758037,1.2860407)"><tspan
       sodipodi:role="line"
       id="tspan3480"
       x="169.68817"
       y="24.533829">-</tspan></text>
  <text
     xml:space="preserve"
     style="font-size:9.26553726px;font-style:normal;font-weight:normal;line-height:125%;letter-spacing:0px;word-spacing:0px;fill:#000000;fill-opacity:1;stroke:none;font-family:Sans"
     x="545.93408"
     y="23.800404"
     id="text3482"
     sodipodi:linespacing="125%"
     transform="scale(0.77758037,1.2860407)"><tspan
       sodipodi:role="line"
       id="tspan3484"
       x="545.93408"
       y="23.800404"
       style="font-size:7.41242981px">Scope</tspan></text>
  <text
     xml:space="preserve"
     style="font-size:9.26553726px;font-style:normal;font-weight:normal;line-height:125%;letter-spacing:0px;word-spacing:0px;fill:#000000;fill-opacity:1;stroke:none;font-family:Sans"
     x="243.03043"
     y="125.01276"
     id="text3486"
     sodipodi:linespacing="125%"
     transform="scale(0.77758037,1.2860407)"><tspan
       sodipodi:role="line"
       id="tspan3488"
       x="243.03043"
       y="125.01276">1-bit</tspan><tspan
       sodipodi:role="line"
       x="243.03043"
       y="136.59468"
       id="tspan3490" /></text>
  <text
     xml:space="preserve"
     style="font-size:9.26553726px;font-style:normal;font-weight:normal;line-height:125%;letter-spacing:0px;word-spacing:0px;fill:#000000;fill-opacity:1;stroke:none;font-family:Sans"
     x="243.03043"
     y="14.265905"
     id="text3492"
     sodipodi:linespacing="125%"
     transform="scale(0.77758037,1.2860407)"><tspan
       sodipodi:role="line"
       id="tspan3494"
       x="243.03043"
       y="14.265905">Delay</tspan></text>
  <text
     xml:space="preserve"
     style="font-size:9.26553726px;font-style:normal;font-weight:normal;line-height:125%;letter-spacing:0px;word-spacing:0px;fill:#000000;fill-opacity:1;stroke:none;font-family:Sans"
     x="375.04654"
     y="13.532482"
     id="text3496"
     sodipodi:linespacing="125%"
     transform="scale(0.77758037,1.2860407)"><tspan
       sodipodi:role="line"
       id="tspan3498"
       x="375.04654"
       y="13.532482">1-bit </tspan></text>
  <text
     xml:space="preserve"
     style="font-size:9.26553726px;font-style:normal;font-weight:normal;line-height:125%;letter-spacing:0px;word-spacing:0px;fill:#000000;fill-opacity:1;stroke:none;font-family:Sans"
     x="42.072582"
     y="10.598799"
     id="text3500"
     sodipodi:linespacing="125%"
     transform="scale(0.77758037,1.2860407)"><tspan
       sodipodi:role="line"
       id="tspan3502"
       x="42.072582"
       y="10.598799">x(kT)</tspan></text>
  <text
     xml:space="preserve"
     style="font-size:9.26553726px;font-style:normal;font-weight:normal;line-height:125%;letter-spacing:0px;word-spacing:0px;fill:#000000;fill-opacity:1;stroke:none;font-family:Sans"
     x="98.546143"
     y="64.872078"
     id="text3504"
     sodipodi:linespacing="125%"
     transform="scale(0.77758037,1.2860407)"><tspan
       sodipodi:role="line"
       id="tspan3506"
       x="98.546143"
       y="64.872078">q(kT)</tspan></text>
  <text
     xml:space="preserve"
     style="font-size:9.26553726px;font-style:normal;font-weight:normal;line-height:125%;letter-spacing:0px;word-spacing:0px;fill:#000000;fill-opacity:1;stroke:none;font-family:Sans"
     x="321.50671"
     y="9.1319523"
     id="text3508"
     sodipodi:linespacing="125%"
     transform="scale(0.77758037,1.2860407)"><tspan
       sodipodi:role="line"
       id="tspan3512"
       x="321.50671"
       y="9.1319523">u(kT)</tspan></text>
  <path
     sodipodi:type="arc"
     style="fill:#f9f9f9"
     id="path3516"
     sodipodi:cx="1114.5165"
     sodipodi:cy="136.08699"
     sodipodi:rx="9.4987202"
     sodipodi:ry="16.622761"
     d="m 1124.0152,136.08699 a 9.4987202,16.622761 0 1 1 -18.9974,0 9.4987202,16.622761 0 1 1 18.9974,0 z"
     transform="matrix(0.36023499,0,0,0.59579286,-15.760285,-70.750417)" />
  <path
     sodipodi:type="arc"
     style="fill:#f9f9f9"
     id="path3518"
     sodipodi:cx="1142.2211"
     sodipodi:cy="140.83635"
     sodipodi:rx="13.45652"
     sodipodi:ry="10.29028"
     d="m 1155.6776,140.83635 a 13.45652,10.29028 0 1 1 -26.9131,0 13.45652,10.29028 0 1 1 26.9131,0 z"
     transform="matrix(0.36023499,0,0,0.59579286,-15.760285,-70.750417)" />
  <path
     sodipodi:type="arc"
     style="fill:#f9f9f9"
     id="path3520"
     sodipodi:cx="1272.037"
     sodipodi:cy="430.54733"
     sodipodi:rx="0.79156005"
     sodipodi:ry="3.9578001"
     d="m 1272.8285,430.54733 a 0.79156005,3.9578001 0 1 1 -1.5831,0 0.79156005,3.9578001 0 1 1 1.5831,0 z"
     transform="matrix(0.36023499,0,0,0.59579286,-15.760285,-70.750417)" />
  <text
     xml:space="preserve"
     style="font-size:9.26553726px;font-style:normal;font-weight:normal;line-height:125%;letter-spacing:0px;word-spacing:0px;fill:#000000;fill-opacity:1;stroke:none;font-family:Sans"
     x="486.52692"
     y="12.065634"
     id="text3522"
     sodipodi:linespacing="125%"
     transform="scale(0.77758037,1.2860407)"><tspan
       sodipodi:role="line"
       id="tspan3524"
       x="486.52692"
       y="12.065634">y(kT)</tspan></text>
  <text
     xml:space="preserve"
     style="font-size:16px;font-style:normal;font-weight:normal;line-height:125%;letter-spacing:0px;word-spacing:0px;fill:#000000;fill-opacity:1;stroke:none;font-family:Sans"
     x="1008.5927"
     y="14.614673"
     id="text3526"
     sodipodi:linespacing="125%"><tspan
       sodipodi:role="line"
       id="tspan3528"
       x="1008.5927"
       y="14.614673" /></text>
  <text
     xml:space="preserve"
     style="font-size:20px;font-style:normal;font-weight:normal;line-height:125%;letter-spacing:0px;word-spacing:0px;fill:#000000;fill-opacity:1;stroke:none;font-family:Sans"
     x="233.9619"
     y="217.24483"
     id="text3022"
     sodipodi:linespacing="125%"
     transform="matrix(0.80000003,0,0,0.80000003,-9.1502326e-6,0)"><tspan
       sodipodi:role="line"
       id="tspan3026"
       x="233.9619"
       y="217.24483"
       style="font-size:11.57999995px">DAC</tspan></text>
  <text
     xml:space="preserve"
     style="font-size:20px;font-style:normal;font-weight:normal;line-height:125%;letter-spacing:0px;word-spacing:0px;fill:#000000;fill-opacity:1;stroke:none;font-family:Sans"
     x="364.93579"
     y="41.493549"
     id="text3030"
     sodipodi:linespacing="125%"
     transform="matrix(0.80000003,0,0,0.80000003,-9.1502326e-6,0)"><tspan
       sodipodi:role="line"
       id="tspan3032"
       x="364.93579"
       y="41.493549"
       style="font-size:11.57999995px">ADC</tspan></text>
</svg>
